<svg width="48" height="50" fill="none" xmlns="http://www.w3.org/2000/svg"><path d="M0 24.985C0 11.335 10.745.27 24 .27s24 11.066 24 24.716-10.745 24.717-24 24.717S0 38.636 0 24.985Z" fill="#fff"/><path fill-rule="evenodd" clip-rule="evenodd" d="M29.267 10.155c.251 1.758-.444 3.48-1.36 4.698-.98 1.307-2.67 2.317-4.307 2.264-.3-1.682.466-3.416 1.397-4.582 1.022-1.286 2.772-2.273 4.27-2.38Zm4.918 24.739c.844-1.332 1.16-2.004 1.815-3.508-4.766-1.867-5.53-8.844-.813-11.523-1.438-1.857-3.46-2.934-5.368-2.934-1.375 0-2.317.37-3.174.705-.713.28-1.368.537-2.163.537-.86 0-1.622-.281-2.42-.576-.875-.323-1.795-.663-2.936-.663-2.141 0-4.42 1.348-5.866 3.651-2.031 3.245-1.685 9.345 1.61 14.54 1.177 1.86 2.75 3.95 4.808 3.968.854.009 1.422-.253 2.037-.537.704-.325 1.468-.679 2.793-.686 1.332-.008 2.085.35 2.78.68.598.284 1.154.548 2 .538 2.06-.017 3.72-2.332 4.897-4.192Z" fill="#0B0B0A"/></svg>