<svg width="48" height="50" fill="none" xmlns="http://www.w3.org/2000/svg"><path d="M24 49.702c13.255 0 24-11.066 24-24.717C48 11.335 37.255.27 24 .27S0 11.335 0 24.985s10.745 24.717 24 24.717Z" fill="#fff"/><path d="m33.647 29.975 6.3-3.597c.711-.407 1.457-1.445 0-2.274l-6.304-3.587-4.513 4.744 4.517 4.714Z" fill="#FFE300"/><path d="M29.13 25.26 14.696 40.433c.326.043.718-.047 1.169-.305l17.782-10.153-4.517-4.713Z" fill="#FF4E54"/><path d="m29.13 25.26 4.512-4.743L15.865 10.4c-.386-.22-.807-.296-1.18-.21L29.13 25.26Z" fill="#00F085"/><path d="M29.13 25.26 14.686 10.19c-.597.14-1.086.678-1.086 1.76v26.674c0 1.019.385 1.736 1.096 1.808L29.13 25.26Z" fill="#00E0FF"/></svg>